<svg class="bob" font-family="arial" font-size="14" height="192" width="736" xmlns="http://www.w3.org/2000/svg">
<defs>
<marker id="triangle" markerHeight="8" markerWidth="8" orient="auto" refX="4" refY="2" viewBox="0 0 8 4">
<polygon class="fg_fill" points="0,0 0,4 8,2 0,0"/>
</marker>
<marker id="clear_triangle" markerHeight="10" markerWidth="10" orient="auto" refX="1" refY="7" viewBox="0 0 20 14">
<polygon class="bg_fill" points="2,2 2,12 18,7 2,2"/>
</marker>
<marker id="circle" markerHeight="5" markerWidth="5" orient="auto" refX="10" refY="10" viewBox="0 0 20 20">
<circle class="fg_fill" cx="10" cy="10" r="8"/>
</marker>
<marker id="square" markerHeight="5" markerWidth="5" orient="auto" refX="10" refY="10" viewBox="0 0 20 20">
<rect class="fg_fill" height="20" width="20" x="0" y="0"/>
</marker>
<marker id="open_circle" markerHeight="10" markerWidth="10" orient="auto" refX="10" refY="10" viewBox="0 0 20 20">
<circle class="bg_fill" cx="10" cy="10" r="4"/>
</marker>
<marker id="big_open_circle" markerHeight="20" markerWidth="20" orient="auto" refX="20" refY="20" viewBox="0 0 40 40">
<circle class="bg_fill" cx="20" cy="20" r="6"/>
</marker>
</defs>
<style type="text/css">
@import url('https://cdn.jsdelivr.net/npm/hack-font@3.3.0/build/web/hack-subset.css');
* { font-family: Hack; font-size: 13px; }


rect.backdrop {
    fill: white;
}
text{
    fill: black;
}

circle {
    fill: none;
    stroke: black;
    stroke-width: 2;
}

line {
    stroke: black;
    stroke-width: 2;
    stroke-opacity: 1;
    fill-opacity: 1;
    stroke-linecap: round;
    stroke-linejoin: miter;
}

path {
    fill: none;
    stroke: black;
    stroke-width: 2;
    stroke-opacity: 1;
    fill-opacity: 1;
    stroke-linecap: round;
    stroke-linejoin: miter;
}

line.dashed {
    stroke-dasharray: 5;
}

.fg_fill {
    fill: black;
}


.bg_fill {
    fill: white;
    stroke: black;
    stroke-width: 2;
}

tspan.head{
    fill: none;
    stroke: none;
}
    
</style>
<rect class="backdrop" height="192" width="736" x="0" y="0"/>
<g>
<line x1="92" x2="92" y1="24" y2="56"/>
<line x1="92" x2="652" y1="24" y2="24"/>
<line x1="92" x2="92" y1="56" y2="88"/>
<line x1="92" x2="324" y1="56" y2="56"/>
<line x1="92" x2="324" y1="88" y2="88"/>
<line x1="324" x2="324" y1="56" y2="48"/>
<line x1="324" x2="324" y1="56" y2="88"/>
<line x1="324" x2="652" y1="56" y2="56"/>
<line x1="652" x2="652" y1="24" y2="56"/>
</g>
<g>
<line marker-end="url(#triangle)" x1="92" x2="92" y1="112" y2="100"/>
<line class="dashed" x1="92" x2="92" y1="112" y2="144"/>
</g>
<g>
<line marker-end="url(#triangle)" x1="104" x2="100" y1="40" y2="40"/>
<line x1="104" x2="312" y1="40" y2="40"/>
</g>
<g>
<line marker-end="url(#triangle)" x1="104" x2="100" y1="72" y2="72"/>
<line x1="104" x2="128" y1="72" y2="72"/>
</g>
<g>
<line marker-end="url(#triangle)" x1="288" x2="316" y1="72" y2="72"/>
</g>
<g>
<line marker-end="url(#triangle)" x1="324" x2="324" y1="112" y2="100"/>
<line class="dashed" x1="324" x2="324" y1="112" y2="144"/>
</g>
<g>
<line x1="428" x2="428" y1="88" y2="120"/>
<line x1="428" x2="652" y1="88" y2="88"/>
<line x1="428" x2="652" y1="120" y2="120"/>
<line x1="652" x2="652" y1="88" y2="120"/>
</g>
<g>
<line marker-end="url(#triangle)" x1="428" x2="428" y1="144" y2="132"/>
<line class="dashed" x1="428" x2="428" y1="144" y2="176"/>
</g>
<g>
<line marker-end="url(#triangle)" x1="440" x2="436" y1="104" y2="104"/>
<line x1="440" x2="456" y1="104" y2="104"/>
</g>
<g>
<line marker-end="url(#triangle)" x1="456" x2="644" y1="40" y2="40"/>
</g>
<g>
<line marker-end="url(#triangle)" x1="624" x2="644" y1="104" y2="104"/>
</g>
<g>
<line marker-end="url(#triangle)" x1="652" x2="652" y1="144" y2="132"/>
<line class="dashed" x1="652" x2="652" y1="144" y2="176"/>
</g>
<g>
<text x="17" y="156">
Received
</text>
</g>
<g>
<text x="89" y="156">
RequestHeaders
</text>
</g>
<g>
<text x="129" y="76">
requestDurationNanos
</text>
</g>
<g>
<text x="233" y="156">
Received
</text>
</g>
<g>
<text x="305" y="156">
the
</text>
</g>
<g>
<text x="313" y="44">
totalDurationNanos
</text>
</g>
<g>
<text x="337" y="156">
last
</text>
</g>
<g>
<text x="345" y="188">
Sending
</text>
</g>
<g>
<text x="377" y="156">
frame
</text>
</g>
<g>
<text x="409" y="188">
ResponseHeaders
</text>
</g>
<g>
<text x="457" y="108">
responseDurationNanos
</text>
</g>
<g>
<text x="561" y="188">
Sending
</text>
</g>
<g>
<text x="625" y="188">
the
</text>
</g>
<g>
<text x="657" y="188">
last
</text>
</g>
<g>
<text x="697" y="188">
frame
</text>
</g>
</svg>
