<svg class="bob" font-family="arial" font-size="14" height="528" width="512" xmlns="http://www.w3.org/2000/svg">
<defs>
<marker id="triangle" markerHeight="8" markerWidth="8" orient="auto" refX="4" refY="2" viewBox="0 0 8 4">
<polygon class="fg_fill" points="0,0 0,4 8,2 0,0"/>
</marker>
<marker id="clear_triangle" markerHeight="10" markerWidth="10" orient="auto" refX="1" refY="7" viewBox="0 0 20 14">
<polygon class="bg_fill" points="2,2 2,12 18,7 2,2"/>
</marker>
<marker id="circle" markerHeight="5" markerWidth="5" orient="auto" refX="10" refY="10" viewBox="0 0 20 20">
<circle class="fg_fill" cx="10" cy="10" r="8"/>
</marker>
<marker id="square" markerHeight="5" markerWidth="5" orient="auto" refX="10" refY="10" viewBox="0 0 20 20">
<rect class="fg_fill" height="20" width="20" x="0" y="0"/>
</marker>
<marker id="open_circle" markerHeight="10" markerWidth="10" orient="auto" refX="10" refY="10" viewBox="0 0 20 20">
<circle class="bg_fill" cx="10" cy="10" r="4"/>
</marker>
<marker id="big_open_circle" markerHeight="20" markerWidth="20" orient="auto" refX="20" refY="20" viewBox="0 0 40 40">
<circle class="bg_fill" cx="20" cy="20" r="6"/>
</marker>
</defs>
<style type="text/css">
@import url('https://cdn.jsdelivr.net/npm/hack-font@3.3.0/build/web/hack-subset.css');
* { font-family: Hack; font-size: 13px; }


rect.backdrop {
    fill: white;
}
text{
    fill: black;
}

circle {
    fill: none;
    stroke: black;
    stroke-width: 2;
}

line {
    stroke: black;
    stroke-width: 2;
    stroke-opacity: 1;
    fill-opacity: 1;
    stroke-linecap: round;
    stroke-linejoin: miter;
}

path {
    fill: none;
    stroke: black;
    stroke-width: 2;
    stroke-opacity: 1;
    fill-opacity: 1;
    stroke-linecap: round;
    stroke-linejoin: miter;
}

line.dashed {
    stroke-dasharray: 5;
}

.fg_fill {
    fill: black;
}


.bg_fill {
    fill: white;
    stroke: black;
    stroke-width: 2;
}

tspan.head{
    fill: none;
    stroke: none;
}
    
</style>
<rect class="backdrop" height="528" width="512" x="0" y="0"/>
<g>
<line x1="0" x2="8" y1="16" y2="0"/>
<line x1="4" x2="8" y1="8" y2="0"/>
<line x1="4" x2="508" y1="8" y2="8"/>
<line x1="504" x2="508" y1="0" y2="8"/>
<line x1="504" x2="512" y1="0" y2="16"/>
<line x1="508" x2="508" y1="8" y2="520"/>
</g>
<g>
<line x1="0" x2="8" y1="512" y2="528"/>
<line x1="8" x2="4" y1="528" y2="520"/>
</g>
<g>
<line x1="4" x2="4" y1="8" y2="520"/>
<line x1="4" x2="508" y1="520" y2="520"/>
<line x1="504" x2="508" y1="528" y2="520"/>
<line x1="504" x2="512" y1="528" y2="512"/>
</g>
<g>
<line x1="28" x2="28" y1="104" y2="264"/>
<line x1="28" x2="212" y1="104" y2="104"/>
<line x1="28" x2="212" y1="264" y2="264"/>
<line x1="212" x2="212" y1="104" y2="264"/>
</g>
<g>
<line x1="28" x2="28" y1="296" y2="456"/>
<line x1="28" x2="212" y1="296" y2="296"/>
<line x1="28" x2="212" y1="456" y2="456"/>
<line x1="212" x2="212" y1="296" y2="456"/>
</g>
<g>
<line marker-end="url(#triangle)" x1="224" x2="220" y1="200" y2="200"/>
<line x1="224" x2="284" y1="200" y2="200"/>
<line x1="284" x2="284" y1="184" y2="200"/>
<line x1="284" x2="444" y1="184" y2="184"/>
<line x1="284" x2="284" y1="200" y2="216"/>
<line x1="284" x2="284" y1="216" y2="224"/>
<line x1="284" x2="444" y1="216" y2="216"/>
<line x1="444" x2="444" y1="184" y2="216"/>
<line x1="444" x2="444" y1="216" y2="248"/>
<line class="dashed" x1="284" x2="284" y1="224" y2="240"/>
</g>
<g>
<line marker-end="url(#triangle)" x1="224" x2="220" y1="424" y2="424"/>
<line x1="224" x2="284" y1="424" y2="424"/>
<line x1="284" x2="284" y1="408" y2="424"/>
<line x1="284" x2="444" y1="408" y2="408"/>
<line x1="284" x2="284" y1="424" y2="440"/>
<line x1="284" x2="444" y1="440" y2="440"/>
<line x1="444" x2="444" y1="376" y2="408"/>
<line x1="444" x2="444" y1="408" y2="440"/>
</g>
<g>
<line x1="240" x2="248" y1="80" y2="64"/>
<line x1="244" x2="248" y1="72" y2="64"/>
<line x1="244" x2="484" y1="72" y2="72"/>
<line x1="480" x2="484" y1="64" y2="72"/>
<line x1="480" x2="488" y1="64" y2="80"/>
<line x1="484" x2="484" y1="72" y2="488"/>
</g>
<g>
<line x1="240" x2="248" y1="480" y2="496"/>
<line x1="248" x2="244" y1="496" y2="488"/>
</g>
<g>
<line x1="244" x2="244" y1="72" y2="80"/>
<line class="dashed" x1="244" x2="244" y1="80" y2="96"/>
</g>
<g>
<line x1="244" x2="244" y1="96" y2="192"/>
</g>
<g>
<line x1="244" x2="244" y1="224" y2="416"/>
<line class="dashed" x1="244" x2="244" y1="208" y2="224"/>
</g>
<g>
<line x1="244" x2="244" y1="448" y2="488"/>
<line x1="244" x2="484" y1="488" y2="488"/>
<line x1="480" x2="484" y1="496" y2="488"/>
<line x1="480" x2="488" y1="496" y2="480"/>
<line class="dashed" x1="244" x2="244" y1="432" y2="448"/>
</g>
<g>
<line x1="268" x2="268" y1="152" y2="192"/>
<line x1="268" x2="460" y1="152" y2="152"/>
<line x1="460" x2="460" y1="152" y2="264"/>
<line x1="460" x2="460" y1="264" y2="296"/>
</g>
<g>
<line x1="268" x2="268" y1="208" y2="264"/>
<line x1="268" x2="268" y1="264" y2="296"/>
<line x1="268" x2="460" y1="264" y2="264"/>
<line x1="268" x2="460" y1="296" y2="296"/>
</g>
<g>
<line x1="268" x2="268" y1="344" y2="416"/>
<line x1="268" x2="460" y1="344" y2="344"/>
<line x1="460" x2="460" y1="344" y2="456"/>
</g>
<g>
<line x1="268" x2="268" y1="432" y2="456"/>
<line x1="268" x2="460" y1="456" y2="456"/>
</g>
<g>
<line x1="284" x2="284" y1="248" y2="240"/>
<line x1="284" x2="444" y1="248" y2="248"/>
</g>
<g>
<line x1="284" x2="284" y1="376" y2="384"/>
<line x1="284" x2="444" y1="376" y2="376"/>
<line class="dashed" x1="284" x2="284" y1="384" y2="400"/>
</g>
<g>
<line x1="284" x2="284" y1="408" y2="400"/>
</g>
<g>
<text x="25" y="44">
RequestLog
</text>
</g>
<g>
<text x="49" y="348">
Response
</text>
</g>
<g>
<text x="57" y="156">
Request
</text>
</g>
<g>
<text x="73" y="204">
Copied
</text>
</g>
<g>
<text x="73" y="220">
the
</text>
</g>
<g>
<text x="73" y="396">
Copied
</text>
</g>
<g>
<text x="73" y="412">
the
</text>
</g>
<g>
<text x="105" y="220">
first
</text>
</g>
<g>
<text x="105" y="412">
last
</text>
</g>
<g>
<text x="121" y="156">
side
</text>
</g>
<g>
<text x="121" y="348">
side
</text>
</g>
<g>
<text x="129" y="204">
from
</text>
</g>
<g>
<text x="129" y="396">
from
</text>
</g>
<g>
<text x="145" y="412">
child
</text>
</g>
<g>
<text x="153" y="220">
child
</text>
</g>
<g>
<text x="161" y="156">
log
</text>
</g>
<g>
<text x="161" y="348">
log
</text>
</g>
<g>
<text x="281" y="172">
Child
</text>
</g>
<g>
<text x="281" y="284">
...
</text>
</g>
<g>
<text x="281" y="364">
Child
</text>
</g>
<g>
<text x="297" y="108">
Child
</text>
</g>
<g>
<text x="297" y="204">
Request
</text>
</g>
<g>
<text x="297" y="236">
Response
</text>
</g>
<g>
<text x="297" y="396">
Request
</text>
</g>
<g>
<text x="297" y="428">
Response
</text>
</g>
<g>
<text x="313" y="124">
e.g.
</text>
</g>
<g>
<text x="329" y="172">
#1
</text>
</g>
<g>
<text x="329" y="364">
#N
</text>
</g>
<g>
<text x="345" y="108">
RequestLogs
</text>
</g>
<g>
<text x="353" y="124">
retries
</text>
</g>
<g>
<text x="361" y="204">
side
</text>
</g>
<g>
<text x="361" y="316">
.
</text>
</g>
<g>
<text x="361" y="332">
.
</text>
</g>
<g>
<text x="361" y="396">
side
</text>
</g>
<g>
<text x="369" y="236">
side
</text>
</g>
<g>
<text x="369" y="428">
side
</text>
</g>
<g>
<text x="401" y="204">
log
</text>
</g>
<g>
<text x="401" y="396">
log
</text>
</g>
<g>
<text x="409" y="236">
log
</text>
</g>
<g>
<text x="409" y="428">
log
</text>
</g>
</svg>
