<svg class="bob" font-family="arial" font-size="14" height="96" width="840" xmlns="http://www.w3.org/2000/svg">
<defs>
<marker id="triangle" markerHeight="8" markerWidth="8" orient="auto" refX="4" refY="2" viewBox="0 0 8 4">
<polygon class="fg_fill" points="0,0 0,4 8,2 0,0"/>
</marker>
<marker id="clear_triangle" markerHeight="10" markerWidth="10" orient="auto" refX="1" refY="7" viewBox="0 0 20 14">
<polygon class="bg_fill" points="2,2 2,12 18,7 2,2"/>
</marker>
<marker id="circle" markerHeight="5" markerWidth="5" orient="auto" refX="10" refY="10" viewBox="0 0 20 20">
<circle class="fg_fill" cx="10" cy="10" r="8"/>
</marker>
<marker id="square" markerHeight="5" markerWidth="5" orient="auto" refX="10" refY="10" viewBox="0 0 20 20">
<rect class="fg_fill" height="20" width="20" x="0" y="0"/>
</marker>
<marker id="open_circle" markerHeight="10" markerWidth="10" orient="auto" refX="10" refY="10" viewBox="0 0 20 20">
<circle class="bg_fill" cx="10" cy="10" r="4"/>
</marker>
<marker id="big_open_circle" markerHeight="20" markerWidth="20" orient="auto" refX="20" refY="20" viewBox="0 0 40 40">
<circle class="bg_fill" cx="20" cy="20" r="6"/>
</marker>
</defs>
<style type="text/css">
@import url('https://cdn.jsdelivr.net/npm/hack-font@3.3.0/build/web/hack-subset.css');
* { font-family: Hack; font-size: 13px; }


rect.backdrop {
    fill: white;
}
text{
    fill: black;
}

circle {
    fill: none;
    stroke: black;
    stroke-width: 2;
}

line {
    stroke: black;
    stroke-width: 2;
    stroke-opacity: 1;
    fill-opacity: 1;
    stroke-linecap: round;
    stroke-linejoin: miter;
}

path {
    fill: none;
    stroke: black;
    stroke-width: 2;
    stroke-opacity: 1;
    fill-opacity: 1;
    stroke-linecap: round;
    stroke-linejoin: miter;
}

line.dashed {
    stroke-dasharray: 5;
}

.fg_fill {
    fill: black;
}


.bg_fill {
    fill: white;
    stroke: black;
    stroke-width: 2;
}

tspan.head{
    fill: none;
    stroke: none;
}
    
</style>
<rect class="backdrop" height="96" width="840" x="0" y="0"/>
<g>
<line x1="4" x2="4" y1="8" y2="88"/>
<line x1="4" x2="76" y1="8" y2="8"/>
<line x1="4" x2="76" y1="88" y2="88"/>
<line x1="76" x2="76" y1="8" y2="88"/>
</g>
<g>
<line marker-end="url(#triangle)" x1="76" x2="116" y1="24" y2="24"/>
</g>
<g>
<line marker-end="url(#triangle)" x1="88" x2="84" y1="72" y2="72"/>
<line x1="88" x2="124" y1="72" y2="72"/>
</g>
<g>
<line x1="124" x2="124" y1="8" y2="88"/>
<line x1="124" x2="220" y1="8" y2="8"/>
<line x1="124" x2="220" y1="88" y2="88"/>
<line x1="220" x2="220" y1="8" y2="88"/>
</g>
<g>
<line marker-end="url(#triangle)" x1="220" x2="260" y1="24" y2="24"/>
</g>
<g>
<line marker-end="url(#triangle)" x1="232" x2="228" y1="72" y2="72"/>
<line x1="232" x2="268" y1="72" y2="72"/>
</g>
<g>
<line x1="268" x2="268" y1="8" y2="88"/>
<line x1="268" x2="364" y1="8" y2="8"/>
<line x1="268" x2="364" y1="88" y2="88"/>
<line x1="364" x2="364" y1="8" y2="88"/>
</g>
<g>
<line marker-end="url(#triangle)" x1="364" x2="396" y1="24" y2="24"/>
</g>
<g>
<line marker-end="url(#triangle)" x1="376" x2="372" y1="72" y2="72"/>
<line x1="376" x2="400" y1="72" y2="72"/>
</g>
<g>
<line marker-end="url(#triangle)" x1="504" x2="532" y1="24" y2="24"/>
</g>
<g>
<line marker-end="url(#triangle)" x1="512" x2="508" y1="72" y2="72"/>
<line x1="512" x2="540" y1="72" y2="72"/>
</g>
<g>
<line x1="540" x2="540" y1="8" y2="88"/>
<line x1="540" x2="636" y1="8" y2="8"/>
<line x1="540" x2="636" y1="88" y2="88"/>
<line x1="636" x2="636" y1="8" y2="88"/>
</g>
<g>
<line marker-end="url(#triangle)" x1="636" x2="676" y1="24" y2="24"/>
</g>
<g>
<line marker-end="url(#triangle)" x1="648" x2="644" y1="72" y2="72"/>
<line x1="648" x2="684" y1="72" y2="72"/>
</g>
<g>
<line x1="684" x2="684" y1="8" y2="88"/>
<line x1="684" x2="780" y1="8" y2="8"/>
<line x1="684" x2="780" y1="88" y2="88"/>
<line x1="780" x2="780" y1="8" y2="88"/>
</g>
<g>
<line x1="780" x2="816" y1="24" y2="24"/>
</g>
<g>
<line marker-end="url(#triangle)" x1="792" x2="788" y1="72" y2="72"/>
<line x1="792" x2="800" y1="72" y2="72"/>
</g>
<g>
<line x1="800" x2="808" y1="70" y2="70"/>
</g>
<g>
<line x1="800" x2="808" y1="74" y2="74"/>
</g>
<g>
<line x1="808" x2="840" y1="72" y2="72"/>
</g>
<g>
<line x1="816" x2="824" y1="22" y2="22"/>
</g>
<g>
<line x1="816" x2="824" y1="26" y2="26"/>
</g>
<g>
<line marker-end="url(#triangle)" x1="824" x2="836" y1="24" y2="24"/>
</g>
<g>
<text x="17" y="44">
Thrift
</text>
</g>
<g>
<text x="17" y="60">
Client
</text>
</g>
<g>
<text x="89" y="12">
req
</text>
</g>
<g>
<text x="89" y="60">
res
</text>
</g>
<g>
<text x="137" y="44">
#1
</text>
</g>
<g>
<text x="137" y="60">
decorator
</text>
</g>
<g>
<text x="161" y="44">
RPC
</text>
</g>
<g>
<text x="233" y="12">
req
</text>
</g>
<g>
<text x="233" y="60">
res
</text>
</g>
<g>
<text x="281" y="44">
#2
</text>
</g>
<g>
<text x="281" y="60">
decorator
</text>
</g>
<g>
<text x="305" y="44">
RPC
</text>
</g>
<g>
<text x="409" y="28">
RPC
</text>
</g>
<g>
<text x="409" y="76">
HTTP
</text>
</g>
<g>
<text x="441" y="28">
to
</text>
</g>
<g>
<text x="449" y="76">
to
</text>
</g>
<g>
<text x="465" y="28">
HTTP
</text>
</g>
<g>
<text x="473" y="76">
RPC
</text>
</g>
<g>
<text x="553" y="44">
#1
</text>
</g>
<g>
<text x="553" y="60">
decorator
</text>
</g>
<g>
<text x="577" y="44">
HTTP
</text>
</g>
<g>
<text x="649" y="12">
req
</text>
</g>
<g>
<text x="649" y="60">
res
</text>
</g>
<g>
<text x="697" y="44">
#2
</text>
</g>
<g>
<text x="697" y="60">
decorator
</text>
</g>
<g>
<text x="721" y="44">
HTTP
</text>
</g>
</svg>
