<svg class="bob" font-family="arial" font-size="14" height="144" width="784" xmlns="http://www.w3.org/2000/svg">
<defs>
<marker id="triangle" markerHeight="8" markerWidth="8" orient="auto" refX="4" refY="2" viewBox="0 0 8 4">
<polygon class="fg_fill" points="0,0 0,4 8,2 0,0"/>
</marker>
<marker id="clear_triangle" markerHeight="10" markerWidth="10" orient="auto" refX="1" refY="7" viewBox="0 0 20 14">
<polygon class="bg_fill" points="2,2 2,12 18,7 2,2"/>
</marker>
<marker id="circle" markerHeight="5" markerWidth="5" orient="auto" refX="10" refY="10" viewBox="0 0 20 20">
<circle class="fg_fill" cx="10" cy="10" r="8"/>
</marker>
<marker id="square" markerHeight="5" markerWidth="5" orient="auto" refX="10" refY="10" viewBox="0 0 20 20">
<rect class="fg_fill" height="20" width="20" x="0" y="0"/>
</marker>
<marker id="open_circle" markerHeight="10" markerWidth="10" orient="auto" refX="10" refY="10" viewBox="0 0 20 20">
<circle class="bg_fill" cx="10" cy="10" r="4"/>
</marker>
<marker id="big_open_circle" markerHeight="20" markerWidth="20" orient="auto" refX="20" refY="20" viewBox="0 0 40 40">
<circle class="bg_fill" cx="20" cy="20" r="6"/>
</marker>
</defs>
<style type="text/css">
@import url('https://cdn.jsdelivr.net/npm/hack-font@3.3.0/build/web/hack-subset.css');
* { font-family: Hack; font-size: 13px; }


rect.backdrop {
    fill: white;
}
text{
    fill: black;
}

circle {
    fill: none;
    stroke: black;
    stroke-width: 2;
}

line {
    stroke: black;
    stroke-width: 2;
    stroke-opacity: 1;
    fill-opacity: 1;
    stroke-linecap: round;
    stroke-linejoin: miter;
}

path {
    fill: none;
    stroke: black;
    stroke-width: 2;
    stroke-opacity: 1;
    fill-opacity: 1;
    stroke-linecap: round;
    stroke-linejoin: miter;
}

line.dashed {
    stroke-dasharray: 5;
}

.fg_fill {
    fill: black;
}


.bg_fill {
    fill: white;
    stroke: black;
    stroke-width: 2;
}

tspan.head{
    fill: none;
    stroke: none;
}
    
</style>
<rect class="backdrop" height="144" width="784" x="0" y="0"/>
<g>
<line x1="4" x2="4" y1="8" y2="16"/>
<line x1="4" x2="732" y1="8" y2="8"/>
<line x1="732" x2="732" y1="8" y2="40"/>
<line class="dashed" x1="4" x2="4" y1="16" y2="32"/>
</g>
<g>
<line x1="4" x2="4" y1="40" y2="32"/>
<line x1="4" x2="4" y1="40" y2="48"/>
<line x1="4" x2="732" y1="40" y2="40"/>
<line class="dashed" x1="4" x2="4" y1="48" y2="64"/>
</g>
<g>
<line x1="4" x2="4" y1="72" y2="64"/>
<line x1="4" x2="260" y1="72" y2="72"/>
<line x1="260" x2="260" y1="48" y2="72"/>
<line x1="260" x2="260" y1="72" y2="80"/>
<line x1="260" x2="476" y1="72" y2="72"/>
<line x1="476" x2="476" y1="72" y2="104"/>
<line x1="476" x2="476" y1="104" y2="112"/>
<line x1="476" x2="732" y1="104" y2="104"/>
<line x1="732" x2="732" y1="104" y2="136"/>
<line class="dashed" x1="260" x2="260" y1="80" y2="96"/>
<line class="dashed" x1="476" x2="476" y1="112" y2="128"/>
</g>
<g>
<line marker-end="url(#triangle)" x1="16" x2="12" y1="24" y2="24"/>
<line x1="16" x2="296" y1="24" y2="24"/>
</g>
<g>
<line marker-end="url(#triangle)" x1="16" x2="12" y1="56" y2="56"/>
<line x1="16" x2="80" y1="56" y2="56"/>
</g>
<g>
<line marker-end="url(#triangle)" x1="184" x2="252" y1="56" y2="56"/>
</g>
<g>
<line x1="260" x2="260" y1="104" y2="96"/>
<line x1="260" x2="476" y1="104" y2="104"/>
</g>
<g>
<line marker-end="url(#triangle)" x1="272" x2="268" y1="88" y2="88"/>
<line x1="272" x2="296" y1="88" y2="88"/>
</g>
<g>
<line marker-end="url(#triangle)" x1="440" x2="468" y1="88" y2="88"/>
</g>
<g>
<line marker-end="url(#triangle)" x1="464" x2="724" y1="24" y2="24"/>
</g>
<g>
<line x1="476" x2="476" y1="136" y2="128"/>
<line x1="476" x2="732" y1="136" y2="136"/>
</g>
<g>
<line marker-end="url(#triangle)" x1="488" x2="484" y1="120" y2="120"/>
<line x1="488" x2="552" y1="120" y2="120"/>
</g>
<g>
<line marker-end="url(#triangle)" x1="656" x2="724" y1="120" y2="120"/>
</g>
<g>
<text x="81" y="60">
dnsResolution
</text>
</g>
<g>
<text x="297" y="28">
connectionAcquisition
</text>
</g>
<g>
<text x="297" y="92">
pendingAcquisition
</text>
</g>
<g>
<text x="553" y="124">
socketConnect
</text>
</g>
<g>
<text x="769" y="12">
#3
</text>
</g>
</svg>
