<svg class="bob" font-family="arial" font-size="14" height="176" width="656" xmlns="http://www.w3.org/2000/svg">
<defs>
<marker id="triangle" markerHeight="8" markerWidth="8" orient="auto" refX="4" refY="2" viewBox="0 0 8 4">
<polygon class="fg_fill" points="0,0 0,4 8,2 0,0"/>
</marker>
<marker id="clear_triangle" markerHeight="10" markerWidth="10" orient="auto" refX="1" refY="7" viewBox="0 0 20 14">
<polygon class="bg_fill" points="2,2 2,12 18,7 2,2"/>
</marker>
<marker id="circle" markerHeight="5" markerWidth="5" orient="auto" refX="10" refY="10" viewBox="0 0 20 20">
<circle class="fg_fill" cx="10" cy="10" r="8"/>
</marker>
<marker id="square" markerHeight="5" markerWidth="5" orient="auto" refX="10" refY="10" viewBox="0 0 20 20">
<rect class="fg_fill" height="20" width="20" x="0" y="0"/>
</marker>
<marker id="open_circle" markerHeight="10" markerWidth="10" orient="auto" refX="10" refY="10" viewBox="0 0 20 20">
<circle class="bg_fill" cx="10" cy="10" r="4"/>
</marker>
<marker id="big_open_circle" markerHeight="20" markerWidth="20" orient="auto" refX="20" refY="20" viewBox="0 0 40 40">
<circle class="bg_fill" cx="20" cy="20" r="6"/>
</marker>
</defs>
<style type="text/css">
@import url('https://cdn.jsdelivr.net/npm/hack-font@3.3.0/build/web/hack-subset.css');
* { font-family: Hack; font-size: 13px; }


rect.backdrop {
    fill: white;
}
text{
    fill: black;
}

circle {
    fill: none;
    stroke: black;
    stroke-width: 2;
}

line {
    stroke: black;
    stroke-width: 2;
    stroke-opacity: 1;
    fill-opacity: 1;
    stroke-linecap: round;
    stroke-linejoin: miter;
}

path {
    fill: none;
    stroke: black;
    stroke-width: 2;
    stroke-opacity: 1;
    fill-opacity: 1;
    stroke-linecap: round;
    stroke-linejoin: miter;
}

line.dashed {
    stroke-dasharray: 5;
}

.fg_fill {
    fill: black;
}


.bg_fill {
    fill: white;
    stroke: black;
    stroke-width: 2;
}

tspan.head{
    fill: none;
    stroke: none;
}
    
</style>
<rect class="backdrop" height="176" width="656" x="0" y="0"/>
<g>
<line x1="92" x2="92" y1="24" y2="56"/>
<line x1="92" x2="652" y1="24" y2="24"/>
<line x1="92" x2="92" y1="56" y2="88"/>
<line x1="92" x2="452" y1="56" y2="56"/>
<line x1="92" x2="284" y1="88" y2="88"/>
<line x1="284" x2="284" y1="88" y2="120"/>
<line x1="284" x2="452" y1="88" y2="88"/>
<line x1="284" x2="652" y1="120" y2="120"/>
<line x1="452" x2="452" y1="56" y2="88"/>
<line x1="452" x2="652" y1="56" y2="56"/>
<line x1="452" x2="652" y1="88" y2="88"/>
<line x1="652" x2="652" y1="24" y2="56"/>
<line x1="652" x2="652" y1="88" y2="120"/>
</g>
<g>
<line marker-end="url(#triangle)" x1="104" x2="100" y1="40" y2="40"/>
<line x1="104" x2="312" y1="40" y2="40"/>
</g>
<g>
<line marker-end="url(#triangle)" x1="104" x2="100" y1="72" y2="72"/>
<line x1="104" x2="192" y1="72" y2="72"/>
</g>
<g>
<line marker-end="url(#triangle)" x1="284" x2="284" y1="144" y2="132"/>
<line class="dashed" x1="284" x2="284" y1="144" y2="160"/>
</g>
<g>
<line marker-end="url(#triangle)" x1="296" x2="292" y1="104" y2="104"/>
<line x1="296" x2="384" y1="104" y2="104"/>
</g>
<g>
<line marker-end="url(#triangle)" x1="352" x2="444" y1="72" y2="72"/>
</g>
<g>
<line marker-end="url(#triangle)" x1="456" x2="644" y1="40" y2="40"/>
</g>
<g>
<line marker-end="url(#triangle)" x1="552" x2="644" y1="104" y2="104"/>
</g>
<g>
<text x="105" y="172">
Sending
</text>
</g>
<g>
<text x="169" y="172">
ResponseHeaders
</text>
</g>
<g>
<text x="193" y="76">
requestDurationNanos
</text>
</g>
<g>
<text x="297" y="172">
before
</text>
</g>
<g>
<text x="313" y="44">
totalDurationNanos
</text>
</g>
<g>
<text x="353" y="172">
the
</text>
</g>
<g>
<text x="385" y="108">
responseDurationNanos
</text>
</g>
<g>
<text x="385" y="172">
service
</text>
</g>
<g>
<text x="449" y="172">
fully
</text>
</g>
<g>
<text x="497" y="172">
receives
</text>
</g>
<g>
<text x="569" y="172">
the
</text>
</g>
<g>
<text x="601" y="172">
request
</text>
</g>
</svg>
