<svg class="bob" font-family="arial" font-size="14" height="224" width="760" xmlns="http://www.w3.org/2000/svg">
<defs>
<marker id="triangle" markerHeight="8" markerWidth="8" orient="auto" refX="4" refY="2" viewBox="0 0 8 4">
<polygon class="fg_fill" points="0,0 0,4 8,2 0,0"/>
</marker>
<marker id="clear_triangle" markerHeight="10" markerWidth="10" orient="auto" refX="1" refY="7" viewBox="0 0 20 14">
<polygon class="bg_fill" points="2,2 2,12 18,7 2,2"/>
</marker>
<marker id="circle" markerHeight="5" markerWidth="5" orient="auto" refX="10" refY="10" viewBox="0 0 20 20">
<circle class="fg_fill" cx="10" cy="10" r="8"/>
</marker>
<marker id="square" markerHeight="5" markerWidth="5" orient="auto" refX="10" refY="10" viewBox="0 0 20 20">
<rect class="fg_fill" height="20" width="20" x="0" y="0"/>
</marker>
<marker id="open_circle" markerHeight="10" markerWidth="10" orient="auto" refX="10" refY="10" viewBox="0 0 20 20">
<circle class="bg_fill" cx="10" cy="10" r="4"/>
</marker>
<marker id="big_open_circle" markerHeight="20" markerWidth="20" orient="auto" refX="20" refY="20" viewBox="0 0 40 40">
<circle class="bg_fill" cx="20" cy="20" r="6"/>
</marker>
</defs>
<style type="text/css">
@import url('https://cdn.jsdelivr.net/npm/hack-font@3.3.0/build/web/hack-subset.css');
* { font-family: Hack; font-size: 13px; }


rect.backdrop {
    fill: white;
}
text{
    fill: black;
}

circle {
    fill: none;
    stroke: black;
    stroke-width: 2;
}

line {
    stroke: black;
    stroke-width: 2;
    stroke-opacity: 1;
    fill-opacity: 1;
    stroke-linecap: round;
    stroke-linejoin: miter;
}

path {
    fill: none;
    stroke: black;
    stroke-width: 2;
    stroke-opacity: 1;
    fill-opacity: 1;
    stroke-linecap: round;
    stroke-linejoin: miter;
}

line.dashed {
    stroke-dasharray: 5;
}

.fg_fill {
    fill: black;
}


.bg_fill {
    fill: white;
    stroke: black;
    stroke-width: 2;
}

tspan.head{
    fill: none;
    stroke: none;
}
    
</style>
<rect class="backdrop" height="224" width="760" x="0" y="0"/>
<g>
<line x1="28" x2="28" y1="24" y2="56"/>
<line x1="28" x2="756" y1="24" y2="24"/>
<line x1="28" x2="28" y1="56" y2="88"/>
<line x1="28" x2="252" y1="56" y2="56"/>
<line x1="28" x2="252" y1="88" y2="88"/>
<line x1="252" x2="252" y1="56" y2="88"/>
<line x1="252" x2="756" y1="56" y2="56"/>
<line x1="756" x2="756" y1="24" y2="56"/>
</g>
<g>
<line marker-end="url(#triangle)" x1="40" x2="36" y1="40" y2="40"/>
<line x1="40" x2="328" y1="40" y2="40"/>
</g>
<g>
<line marker-end="url(#triangle)" x1="40" x2="36" y1="72" y2="72"/>
<line x1="40" x2="56" y1="72" y2="72"/>
</g>
<g>
<line marker-end="url(#triangle)" x1="224" x2="244" y1="72" y2="72"/>
</g>
<g>
<line x1="276" x2="276" y1="88" y2="120"/>
<line x1="276" x2="492" y1="88" y2="88"/>
<line x1="276" x2="492" y1="120" y2="120"/>
<line x1="492" x2="492" y1="88" y2="120"/>
</g>
<g>
<line marker-end="url(#triangle)" x1="276" x2="276" y1="144" y2="132"/>
<line class="dashed" x1="276" x2="276" y1="144" y2="176"/>
</g>
<g>
<line marker-end="url(#triangle)" x1="288" x2="284" y1="104" y2="104"/>
<line x1="288" x2="304" y1="104" y2="104"/>
</g>
<g>
<line marker-end="url(#triangle)" x1="464" x2="484" y1="104" y2="104"/>
</g>
<g>
<line marker-end="url(#triangle)" x1="472" x2="748" y1="40" y2="40"/>
</g>
<g>
<line marker-end="url(#triangle)" x1="492" x2="492" y1="144" y2="132"/>
<line class="dashed" x1="492" x2="492" y1="144" y2="176"/>
</g>
<g>
<line x1="532" x2="532" y1="120" y2="152"/>
<line x1="532" x2="756" y1="120" y2="120"/>
<line x1="532" x2="756" y1="152" y2="152"/>
<line x1="756" x2="756" y1="120" y2="152"/>
</g>
<g>
<line marker-end="url(#triangle)" x1="532" x2="532" y1="176" y2="164"/>
<line class="dashed" x1="532" x2="532" y1="176" y2="208"/>
</g>
<g>
<line marker-end="url(#triangle)" x1="544" x2="540" y1="136" y2="136"/>
<line x1="544" x2="560" y1="136" y2="136"/>
</g>
<g>
<line marker-end="url(#triangle)" x1="728" x2="748" y1="136" y2="136"/>
</g>
<g>
<line marker-end="url(#triangle)" x1="756" x2="756" y1="176" y2="164"/>
<line class="dashed" x1="756" x2="756" y1="176" y2="208"/>
</g>
<g>
<text x="57" y="76">
connectionAcquisition
</text>
</g>
<g>
<text x="153" y="188">
Sending
</text>
</g>
<g>
<text x="217" y="188">
RequestHeaders
</text>
</g>
<g>
<text x="305" y="108">
requestDurationNanos
</text>
</g>
<g>
<text x="329" y="44">
totalDurationNanos
</text>
</g>
<g>
<text x="353" y="188">
Sending
</text>
</g>
<g>
<text x="369" y="220">
Received
</text>
</g>
<g>
<text x="417" y="188">
the
</text>
</g>
<g>
<text x="441" y="220">
ResponseHeaders
</text>
</g>
<g>
<text x="449" y="188">
last
</text>
</g>
<g>
<text x="489" y="188">
frame
</text>
</g>
<g>
<text x="561" y="140">
responseDurationNanos
</text>
</g>
<g>
<text x="577" y="220">
Received
</text>
</g>
<g>
<text x="649" y="220">
the
</text>
</g>
<g>
<text x="681" y="220">
last
</text>
</g>
<g>
<text x="721" y="220">
chunk
</text>
</g>
</svg>
