<svg class="bob" font-family="arial" font-size="14" height="96" width="856" xmlns="http://www.w3.org/2000/svg">
<defs>
<marker id="triangle" markerHeight="8" markerWidth="8" orient="auto" refX="4" refY="2" viewBox="0 0 8 4">
<polygon class="fg_fill" points="0,0 0,4 8,2 0,0"/>
</marker>
<marker id="clear_triangle" markerHeight="10" markerWidth="10" orient="auto" refX="1" refY="7" viewBox="0 0 20 14">
<polygon class="bg_fill" points="2,2 2,12 18,7 2,2"/>
</marker>
<marker id="circle" markerHeight="5" markerWidth="5" orient="auto" refX="10" refY="10" viewBox="0 0 20 20">
<circle class="fg_fill" cx="10" cy="10" r="8"/>
</marker>
<marker id="square" markerHeight="5" markerWidth="5" orient="auto" refX="10" refY="10" viewBox="0 0 20 20">
<rect class="fg_fill" height="20" width="20" x="0" y="0"/>
</marker>
<marker id="open_circle" markerHeight="10" markerWidth="10" orient="auto" refX="10" refY="10" viewBox="0 0 20 20">
<circle class="bg_fill" cx="10" cy="10" r="4"/>
</marker>
<marker id="big_open_circle" markerHeight="20" markerWidth="20" orient="auto" refX="20" refY="20" viewBox="0 0 40 40">
<circle class="bg_fill" cx="20" cy="20" r="6"/>
</marker>
</defs>
<style type="text/css">
@import url('https://cdn.jsdelivr.net/npm/hack-font@3.3.0/build/web/hack-subset.css');
* { font-family: Hack; font-size: 13px; }


rect.backdrop {
    fill: white;
}
text{
    fill: black;
}

circle {
    fill: none;
    stroke: black;
    stroke-width: 2;
}

line {
    stroke: black;
    stroke-width: 2;
    stroke-opacity: 1;
    fill-opacity: 1;
    stroke-linecap: round;
    stroke-linejoin: miter;
}

path {
    fill: none;
    stroke: black;
    stroke-width: 2;
    stroke-opacity: 1;
    fill-opacity: 1;
    stroke-linecap: round;
    stroke-linejoin: miter;
}

line.dashed {
    stroke-dasharray: 5;
}

.fg_fill {
    fill: black;
}


.bg_fill {
    fill: white;
    stroke: black;
    stroke-width: 2;
}

tspan.head{
    fill: none;
    stroke: none;
}
    
</style>
<rect class="backdrop" height="96" width="856" x="0" y="0"/>
<g>
<line x1="4" x2="4" y1="8" y2="88"/>
<line x1="4" x2="100" y1="8" y2="8"/>
<line x1="4" x2="100" y1="88" y2="88"/>
<line x1="100" x2="100" y1="8" y2="88"/>
</g>
<g>
<line marker-end="url(#triangle)" x1="100" x2="156" y1="24" y2="24"/>
</g>
<g>
<line marker-end="url(#triangle)" x1="112" x2="108" y1="72" y2="72"/>
<line x1="112" x2="164" y1="72" y2="72"/>
</g>
<g>
<line x1="164" x2="164" y1="8" y2="88"/>
<line x1="164" x2="260" y1="8" y2="8"/>
<line x1="164" x2="260" y1="88" y2="88"/>
<line x1="260" x2="260" y1="8" y2="88"/>
</g>
<g>
<line marker-end="url(#triangle)" x1="260" x2="316" y1="24" y2="24"/>
</g>
<g>
<line marker-end="url(#triangle)" x1="272" x2="268" y1="72" y2="72"/>
<line x1="272" x2="324" y1="72" y2="72"/>
</g>
<g>
<line x1="324" x2="324" y1="8" y2="88"/>
<line x1="324" x2="420" y1="8" y2="8"/>
<line x1="324" x2="420" y1="88" y2="88"/>
<line x1="420" x2="420" y1="8" y2="88"/>
</g>
<g>
<line marker-end="url(#triangle)" x1="420" x2="476" y1="24" y2="24"/>
</g>
<g>
<line marker-end="url(#triangle)" x1="432" x2="428" y1="72" y2="72"/>
<line x1="432" x2="484" y1="72" y2="72"/>
</g>
<g>
<line x1="484" x2="484" y1="8" y2="88"/>
<line x1="484" x2="636" y1="8" y2="8"/>
<line x1="484" x2="636" y1="88" y2="88"/>
<line x1="636" x2="636" y1="8" y2="88"/>
</g>
<g>
<line marker-end="url(#triangle)" x1="636" x2="724" y1="24" y2="24"/>
</g>
<g>
<line marker-end="url(#triangle)" x1="648" x2="644" y1="72" y2="72"/>
<line x1="648" x2="732" y1="72" y2="72"/>
</g>
<g>
<line x1="732" x2="732" y1="8" y2="88"/>
<line x1="732" x2="852" y1="8" y2="8"/>
<line x1="732" x2="852" y1="88" y2="88"/>
<line x1="852" x2="852" y1="8" y2="88"/>
</g>
<g>
<text x="17" y="44">
WebClient
</text>
</g>
<g>
<text x="121" y="12">
req
</text>
</g>
<g>
<text x="121" y="60">
res
</text>
</g>
<g>
<text x="177" y="44">
#1
</text>
</g>
<g>
<text x="177" y="60">
decorator
</text>
</g>
<g>
<text x="281" y="12">
req
</text>
</g>
<g>
<text x="281" y="60">
res
</text>
</g>
<g>
<text x="337" y="44">
#2
</text>
</g>
<g>
<text x="337" y="60">
decorator
</text>
</g>
<g>
<text x="441" y="12">
req
</text>
</g>
<g>
<text x="441" y="60">
res
</text>
</g>
<g>
<text x="497" y="44">
Armeria
</text>
</g>
<g>
<text x="497" y="60">
Networking
</text>
</g>
<g>
<text x="585" y="60">
Layer
</text>
</g>
<g>
<text x="673" y="12">
req
</text>
</g>
<g>
<text x="673" y="60">
res
</text>
</g>
<g>
<text x="769" y="44">
Server
</text>
</g>
</svg>
