<svg class="bob" font-family="arial" font-size="14" height="288" width="656" xmlns="http://www.w3.org/2000/svg">
<defs>
<marker id="triangle" markerHeight="8" markerWidth="8" orient="auto" refX="4" refY="2" viewBox="0 0 8 4">
<polygon class="fg_fill" points="0,0 0,4 8,2 0,0"/>
</marker>
<marker id="clear_triangle" markerHeight="10" markerWidth="10" orient="auto" refX="1" refY="7" viewBox="0 0 20 14">
<polygon class="bg_fill" points="2,2 2,12 18,7 2,2"/>
</marker>
<marker id="circle" markerHeight="5" markerWidth="5" orient="auto" refX="10" refY="10" viewBox="0 0 20 20">
<circle class="fg_fill" cx="10" cy="10" r="8"/>
</marker>
<marker id="square" markerHeight="5" markerWidth="5" orient="auto" refX="10" refY="10" viewBox="0 0 20 20">
<rect class="fg_fill" height="20" width="20" x="0" y="0"/>
</marker>
<marker id="open_circle" markerHeight="10" markerWidth="10" orient="auto" refX="10" refY="10" viewBox="0 0 20 20">
<circle class="bg_fill" cx="10" cy="10" r="4"/>
</marker>
<marker id="big_open_circle" markerHeight="20" markerWidth="20" orient="auto" refX="20" refY="20" viewBox="0 0 40 40">
<circle class="bg_fill" cx="20" cy="20" r="6"/>
</marker>
</defs>
<style type="text/css">
@import url('https://cdn.jsdelivr.net/npm/hack-font@3.3.0/build/web/hack-subset.css');
* { font-family: Hack; font-size: 13px; }


rect.backdrop {
    fill: white;
}
text{
    fill: black;
}

circle {
    fill: none;
    stroke: black;
    stroke-width: 2;
}

line {
    stroke: black;
    stroke-width: 2;
    stroke-opacity: 1;
    fill-opacity: 1;
    stroke-linecap: round;
    stroke-linejoin: miter;
}

path {
    fill: none;
    stroke: black;
    stroke-width: 2;
    stroke-opacity: 1;
    fill-opacity: 1;
    stroke-linecap: round;
    stroke-linejoin: miter;
}

line.dashed {
    stroke-dasharray: 5;
}

.fg_fill {
    fill: black;
}


.bg_fill {
    fill: white;
    stroke: black;
    stroke-width: 2;
}

tspan.head{
    fill: none;
    stroke: none;
}
    
</style>
<rect class="backdrop" height="288" width="656" x="0" y="0"/>
<g>
<line x1="12" x2="12" y1="24" y2="56"/>
<line x1="12" x2="652" y1="24" y2="24"/>
<line x1="12" x2="12" y1="56" y2="88"/>
<line x1="12" x2="148" y1="56" y2="56"/>
<line x1="12" x2="148" y1="88" y2="88"/>
<line x1="148" x2="148" y1="56" y2="88"/>
<line x1="148" x2="652" y1="56" y2="56"/>
<line x1="652" x2="652" y1="24" y2="56"/>
</g>
<g>
<line marker-end="url(#triangle)" x1="24" x2="20" y1="40" y2="40"/>
<line x1="24" x2="224" y1="40" y2="40"/>
</g>
<g>
<line marker-end="url(#triangle)" x1="24" x2="20" y1="72" y2="72"/>
<line x1="24" x2="40" y1="72" y2="72"/>
</g>
<g>
<line marker-end="url(#triangle)" x1="120" x2="140" y1="72" y2="72"/>
</g>
<g>
<line x1="172" x2="172" y1="88" y2="120"/>
<line x1="172" x2="388" y1="88" y2="88"/>
<line x1="172" x2="388" y1="120" y2="120"/>
<line x1="388" x2="388" y1="88" y2="120"/>
</g>
<g>
<line x1="172" x2="172" y1="216" y2="248"/>
<line x1="172" x2="516" y1="216" y2="216"/>
<line x1="172" x2="516" y1="248" y2="248"/>
<line x1="516" x2="516" y1="216" y2="248"/>
<line x1="516" x2="652" y1="248" y2="248"/>
<line x1="652" x2="652" y1="248" y2="280"/>
</g>
<g>
<line marker-end="url(#triangle)" x1="184" x2="180" y1="104" y2="104"/>
<line x1="184" x2="200" y1="104" y2="104"/>
</g>
<g>
<line marker-end="url(#triangle)" x1="184" x2="180" y1="232" y2="232"/>
<line x1="184" x2="264" y1="232" y2="232"/>
</g>
<g>
<line marker-end="url(#triangle)" x1="308" x2="308" y1="192" y2="204"/>
<line class="dashed" x1="308" x2="308" y1="176" y2="192"/>
</g>
<g>
<line x1="308" x2="308" y1="256" y2="280"/>
<line x1="308" x2="652" y1="280" y2="280"/>
</g>
<g>
<line marker-end="url(#triangle)" x1="320" x2="316" y1="264" y2="264"/>
<line x1="320" x2="408" y1="264" y2="264"/>
</g>
<g>
<line marker-end="url(#triangle)" x1="360" x2="380" y1="104" y2="104"/>
</g>
<g>
<line marker-end="url(#triangle)" x1="368" x2="644" y1="40" y2="40"/>
</g>
<g>
<line marker-end="url(#triangle)" x1="388" x2="388" y1="144" y2="132"/>
<line class="dashed" x1="388" x2="388" y1="144" y2="160"/>
</g>
<g>
<line marker-end="url(#triangle)" x1="424" x2="508" y1="232" y2="232"/>
</g>
<g>
<line x1="428" x2="428" y1="120" y2="152"/>
<line x1="428" x2="652" y1="120" y2="120"/>
<line x1="428" x2="652" y1="152" y2="152"/>
<line x1="652" x2="652" y1="120" y2="152"/>
</g>
<g>
<line marker-end="url(#triangle)" x1="440" x2="436" y1="136" y2="136"/>
<line x1="440" x2="456" y1="136" y2="136"/>
</g>
<g>
<line marker-end="url(#triangle)" x1="576" x2="644" y1="264" y2="264"/>
</g>
<g>
<line marker-end="url(#triangle)" x1="624" x2="644" y1="136" y2="136"/>
</g>
<g>
<text x="41" y="76">
connection
</text>
</g>
<g>
<text x="201" y="108">
requestDurationNanos
</text>
</g>
<g>
<text x="225" y="44">
totalDurationNanos
</text>
</g>
<g>
<text x="265" y="172">
Response
</text>
</g>
<g>
<text x="265" y="236">
requestDurationNanos
</text>
</g>
<g>
<text x="337" y="172">
timeout
</text>
</g>
<g>
<text x="401" y="172">
scheduler
</text>
</g>
<g>
<text x="409" y="268">
responseDurationNanos
</text>
</g>
<g>
<text x="457" y="140">
responseDurationNanos
</text>
</g>
<g>
<text x="481" y="172">
starts
</text>
</g>
</svg>
